<svg width="520" height="320" viewBox="0 0 520 320" fill="none" xmlns="http://www.w3.org/2000/svg">
  <defs>
    <linearGradient id="bg2" x1="0" y1="0" x2="520" y2="320" gradientUnits="userSpaceOnUse">
      <stop stop-color="#FDF2F8"/>
      <stop offset="1" stop-color="#FFE4E6"/>
    </linearGradient>
    <linearGradient id="shirtA" x1="120" y1="118" x2="205" y2="205" gradientUnits="userSpaceOnUse">
      <stop stop-color="#38BDF8"/>
      <stop offset="1" stop-color="#2563EB"/>
    </linearGradient>
    <linearGradient id="shirtB" x1="315" y1="114" x2="400" y2="208" gradientUnits="userSpaceOnUse">
      <stop stop-color="#F97316"/>
      <stop offset="1" stop-color="#DC2626"/>
    </linearGradient>
  </defs>
  <rect x="12" y="12" width="496" height="296" rx="30" fill="url(#bg2)"/>
  <rect x="80" y="245" width="360" height="18" rx="9" fill="#FDBA74" opacity="0.5"/>
  <line x1="140" y1="160" x2="380" y2="160" stroke="#A16207" stroke-width="12" stroke-linecap="round"/>
  <rect x="252" y="146" width="16" height="28" rx="8" fill="#EF4444"/>
  <circle cx="156" cy="108" r="26" fill="#F8FAFC"/>
  <circle cx="366" cy="108" r="26" fill="#F8FAFC"/>
  <rect x="122" y="134" width="72" height="82" rx="26" fill="url(#shirtA)"/>
  <rect x="330" y="130" width="72" height="82" rx="26" fill="url(#shirtB)"/>
  <rect x="95" y="152" width="64" height="18" rx="9" transform="rotate(18 95 152)" fill="#38BDF8"/>
  <rect x="361" y="150" width="64" height="18" rx="9" transform="rotate(-18 361 150)" fill="#F97316"/>
  <rect x="113" y="214" width="28" height="42" rx="10" fill="#334155"/>
  <rect x="171" y="214" width="28" height="42" rx="10" fill="#334155"/>
  <rect x="321" y="212" width="28" height="42" rx="10" fill="#334155"/>
  <rect x="379" y="212" width="28" height="42" rx="10" fill="#334155"/>
  <circle cx="155" cy="108" r="4" fill="#0F172A"/>
  <circle cx="367" cy="108" r="4" fill="#0F172A"/>
  <path d="M146 120C150 126 160 126 164 120" stroke="#0F172A" stroke-width="3" stroke-linecap="round"/>
  <path d="M358 120C362 126 372 126 376 120" stroke="#0F172A" stroke-width="3" stroke-linecap="round"/>
</svg>
