<svg xmlns="http://www.w3.org/2000/svg" viewBox="0 0 960 540">
  <defs>
    <linearGradient id="bg" x1="0" y1="0" x2="1" y2="1">
      <stop offset="0%" stop-color="#e8f5ff" />
      <stop offset="52%" stop-color="#f2fbff" />
      <stop offset="100%" stop-color="#fff3df" />
    </linearGradient>
    <linearGradient id="road" x1="0" y1="0" x2="1" y2="0">
      <stop offset="0%" stop-color="#1f2937" />
      <stop offset="100%" stop-color="#111827" />
    </linearGradient>
    <linearGradient id="carBlue" x1="0" y1="0" x2="1" y2="1">
      <stop offset="0%" stop-color="#22d3ee" />
      <stop offset="100%" stop-color="#2563eb" />
    </linearGradient>
    <linearGradient id="carRed" x1="0" y1="0" x2="1" y2="1">
      <stop offset="0%" stop-color="#fb7185" />
      <stop offset="100%" stop-color="#ef4444" />
    </linearGradient>
    <linearGradient id="hud" x1="0" y1="0" x2="1" y2="1">
      <stop offset="0%" stop-color="#ffffff" />
      <stop offset="100%" stop-color="#eff6ff" />
    </linearGradient>
  </defs>

  <rect width="960" height="540" rx="34" fill="url(#bg)" />
  <circle cx="114" cy="84" r="80" fill="#22d3ee" fill-opacity="0.2" />
  <circle cx="848" cy="456" r="96" fill="#f59e0b" fill-opacity="0.17" />

  <rect x="40" y="38" width="276" height="58" rx="14" fill="#0f766e" fill-opacity="0.93" />
  <text x="178" y="74" font-family="Nunito, Arial, sans-serif" font-size="24" font-weight="900" fill="#ffffff" text-anchor="middle">
    CAR RACING MATH
  </text>

  <rect x="340" y="38" width="178" height="58" rx="14" fill="#1d4ed8" fill-opacity="0.9" />
  <text x="429" y="74" font-family="Nunito, Arial, sans-serif" font-size="22" font-weight="900" fill="#ffffff" text-anchor="middle">
    SPEED QUIZ
  </text>

  <rect x="542" y="38" width="166" height="58" rx="14" fill="#ea580c" fill-opacity="0.9" />
  <text x="625" y="74" font-family="Nunito, Arial, sans-serif" font-size="26" font-weight="900" fill="#ffffff" text-anchor="middle">
    00:15
  </text>

  <rect x="730" y="38" width="188" height="58" rx="14" fill="#0ea5e9" fill-opacity="0.92" />
  <text x="824" y="74" font-family="Nunito, Arial, sans-serif" font-size="22" font-weight="900" fill="#ffffff" text-anchor="middle">
    ROUND 6/10
  </text>

  <rect x="74" y="118" width="812" height="360" rx="30" fill="url(#road)" stroke="#93c5fd" stroke-width="3" />
  <line x1="122" y1="310" x2="844" y2="310" stroke="#f8fafc" stroke-width="8" stroke-dasharray="24 20" opacity="0.85" />
  <line x1="122" y1="224" x2="844" y2="224" stroke="#334155" stroke-width="2" opacity="0.8" />
  <line x1="122" y1="396" x2="844" y2="396" stroke="#334155" stroke-width="2" opacity="0.8" />

  <rect x="110" y="150" width="346" height="120" rx="22" fill="url(#hud)" stroke="#bfdbfe" />
  <text x="282" y="184" font-family="Nunito, Arial, sans-serif" font-size="16" font-weight="800" fill="#64748b" text-anchor="middle">
    MISOL
  </text>
  <text x="282" y="236" font-family="Nunito, Arial, sans-serif" font-size="58" font-weight="900" fill="#0f172a" text-anchor="middle">
    24 x 3 = ?
  </text>

  <rect x="110" y="282" width="346" height="172" rx="22" fill="#f8fafc" stroke="#cbd5e1" stroke-dasharray="8 8" />
  <text x="136" y="314" font-family="Nunito, Arial, sans-serif" font-size="16" font-weight="800" fill="#64748b">
    JAVOBLAR
  </text>
  <text x="144" y="356" font-family="Nunito, Arial, sans-serif" font-size="30" font-weight="900" fill="#2563eb">A) 72</text>
  <text x="292" y="356" font-family="Nunito, Arial, sans-serif" font-size="30" font-weight="900" fill="#ef4444">B) 62</text>
  <text x="144" y="414" font-family="Nunito, Arial, sans-serif" font-size="30" font-weight="900" fill="#10b981">C) 74</text>
  <text x="292" y="414" font-family="Nunito, Arial, sans-serif" font-size="30" font-weight="900" fill="#f59e0b">D) 78</text>

  <rect x="488" y="140" width="356" height="72" rx="16" fill="#0b1220" stroke="#38bdf8" />
  <text x="558" y="168" font-family="Nunito, Arial, sans-serif" font-size="14" font-weight="800" fill="#bae6fd" text-anchor="middle">
    1-JAMOA
  </text>
  <text x="558" y="194" font-family="Nunito, Arial, sans-serif" font-size="28" font-weight="900" fill="#ffffff" text-anchor="middle">
    58m
  </text>
  <text x="772" y="168" font-family="Nunito, Arial, sans-serif" font-size="14" font-weight="800" fill="#fecdd3" text-anchor="middle">
    2-JAMOA
  </text>
  <text x="772" y="194" font-family="Nunito, Arial, sans-serif" font-size="28" font-weight="900" fill="#ffffff" text-anchor="middle">
    54m
  </text>

  <g transform="translate(520 252)">
    <ellipse cx="0" cy="56" rx="82" ry="10" fill="#000000" fill-opacity="0.35" />
    <rect x="-74" y="18" width="148" height="34" rx="14" fill="url(#carBlue)" />
    <path d="M-42 18 L-12 -4 H40 L56 18 Z" fill="#38bdf8" />
    <rect x="-8" y="2" width="42" height="14" rx="6" fill="#e0f2fe" fill-opacity="0.75" />
    <circle cx="-44" cy="56" r="14" fill="#0f172a" />
    <circle cx="44" cy="56" r="14" fill="#0f172a" />
    <circle cx="-44" cy="56" r="7" fill="#94a3b8" />
    <circle cx="44" cy="56" r="7" fill="#94a3b8" />
  </g>

  <g transform="translate(730 326)">
    <ellipse cx="0" cy="56" rx="82" ry="10" fill="#000000" fill-opacity="0.35" />
    <rect x="-74" y="18" width="148" height="34" rx="14" fill="url(#carRed)" />
    <path d="M-42 18 L-12 -4 H40 L56 18 Z" fill="#fb7185" />
    <rect x="-8" y="2" width="42" height="14" rx="6" fill="#ffe4e6" fill-opacity="0.8" />
    <circle cx="-44" cy="56" r="14" fill="#0f172a" />
    <circle cx="44" cy="56" r="14" fill="#0f172a" />
    <circle cx="-44" cy="56" r="7" fill="#94a3b8" />
    <circle cx="44" cy="56" r="7" fill="#94a3b8" />
  </g>

  <rect x="488" y="404" width="356" height="50" rx="14" fill="#ffffff" stroke="#bfdbfe" />
  <text x="666" y="436" font-family="Nunito, Arial, sans-serif" font-size="20" font-weight="900" fill="#1e3a8a" text-anchor="middle">
    TO'G'RI JAVOB = TURBO
  </text>
</svg>
