<svg xmlns="http://www.w3.org/2000/svg" viewBox="0 0 960 540">
  <defs>
    <linearGradient id="bg" x1="0" y1="0" x2="1" y2="1">
      <stop offset="0%" stop-color="#e6f7ff" />
      <stop offset="55%" stop-color="#f0fbff" />
      <stop offset="100%" stop-color="#fff2dd" />
    </linearGradient>
    <linearGradient id="panel" x1="0" y1="0" x2="0" y2="1">
      <stop offset="0%" stop-color="#ffffff" />
      <stop offset="100%" stop-color="#eef7ff" />
    </linearGradient>
    <linearGradient id="enCard" x1="0" y1="0" x2="1" y2="1">
      <stop offset="0%" stop-color="#2563eb" />
      <stop offset="100%" stop-color="#0ea5e9" />
    </linearGradient>
    <linearGradient id="uzCard" x1="0" y1="0" x2="1" y2="1">
      <stop offset="0%" stop-color="#10b981" />
      <stop offset="100%" stop-color="#22c55e" />
    </linearGradient>
    <linearGradient id="tileA" x1="0" y1="0" x2="1" y2="1">
      <stop offset="0%" stop-color="#fb923c" />
      <stop offset="100%" stop-color="#f97316" />
    </linearGradient>
    <linearGradient id="tileB" x1="0" y1="0" x2="1" y2="1">
      <stop offset="0%" stop-color="#60a5fa" />
      <stop offset="100%" stop-color="#2563eb" />
    </linearGradient>
    <linearGradient id="tileC" x1="0" y1="0" x2="1" y2="1">
      <stop offset="0%" stop-color="#34d399" />
      <stop offset="100%" stop-color="#059669" />
    </linearGradient>
  </defs>

  <rect width="960" height="540" rx="34" fill="url(#bg)" />
  <circle cx="120" cy="84" r="78" fill="#38bdf8" fill-opacity="0.2" />
  <circle cx="846" cy="456" r="100" fill="#f59e0b" fill-opacity="0.18" />

  <rect x="46" y="40" width="262" height="56" rx="14" fill="#0f766e" fill-opacity="0.94" />
  <text x="177" y="75" font-family="Nunito, Arial, sans-serif" font-size="24" font-weight="900" fill="#ffffff" text-anchor="middle">
    INGLIZCHA SO'Z TOPISH
  </text>

  <rect x="338" y="40" width="130" height="56" rx="14" fill="#1d4ed8" fill-opacity="0.9" />
  <text x="403" y="75" font-family="Nunito, Arial, sans-serif" font-size="22" font-weight="900" fill="#ffffff" text-anchor="middle">
    VS
  </text>

  <rect x="492" y="40" width="170" height="56" rx="14" fill="#0ea5e9" fill-opacity="0.9" />
  <text x="577" y="75" font-family="Nunito, Arial, sans-serif" font-size="20" font-weight="900" fill="#ffffff" text-anchor="middle">
    LIVE QUIZ
  </text>

  <rect x="80" y="120" width="800" height="356" rx="28" fill="url(#panel)" stroke="#a9d8ee" stroke-width="3" />

  <rect x="114" y="156" width="312" height="128" rx="22" fill="url(#enCard)" />
  <text x="270" y="206" font-family="Nunito, Arial, sans-serif" font-size="24" font-weight="800" fill="#bfdbfe" text-anchor="middle">
    ENGLISH
  </text>
  <text x="270" y="246" font-family="Nunito, Arial, sans-serif" font-size="48" font-weight="900" fill="#ffffff" text-anchor="middle">
    APPLE
  </text>

  <rect x="458" y="156" width="312" height="128" rx="22" fill="url(#uzCard)" />
  <text x="614" y="206" font-family="Nunito, Arial, sans-serif" font-size="24" font-weight="800" fill="#bbf7d0" text-anchor="middle">
    O'ZBEKCHA
  </text>
  <text x="614" y="246" font-family="Nunito, Arial, sans-serif" font-size="48" font-weight="900" fill="#ffffff" text-anchor="middle">
    OLMA
  </text>

  <rect x="114" y="304" width="126" height="138" rx="20" fill="url(#tileA)" />
  <rect x="254" y="304" width="126" height="138" rx="20" fill="url(#tileB)" />
  <rect x="394" y="304" width="126" height="138" rx="20" fill="url(#tileC)" />

  <text x="177" y="389" font-family="Nunito, Arial, sans-serif" font-size="70" font-weight="900" fill="#fff7ed" text-anchor="middle">A</text>
  <text x="317" y="389" font-family="Nunito, Arial, sans-serif" font-size="70" font-weight="900" fill="#eff6ff" text-anchor="middle">B</text>
  <text x="457" y="389" font-family="Nunito, Arial, sans-serif" font-size="70" font-weight="900" fill="#ecfdf5" text-anchor="middle">C</text>

  <rect x="546" y="304" width="224" height="138" rx="20" fill="#ffffff" stroke="#cbd5e1" stroke-dasharray="10 10" />
  <text x="658" y="354" font-family="Nunito, Arial, sans-serif" font-size="20" font-weight="800" fill="#64748b" text-anchor="middle">
    TOPING:
  </text>
  <text x="658" y="392" font-family="Nunito, Arial, sans-serif" font-size="44" font-weight="900" fill="#0f172a" text-anchor="middle">
    SCHOOL
  </text>

  <rect x="776" y="304" width="70" height="138" rx="18" fill="#f8fafc" stroke="#bae6fd" />
  <text x="811" y="346" font-family="Nunito, Arial, sans-serif" font-size="18" font-weight="900" fill="#0ea5e9" text-anchor="middle">BALL</text>
  <text x="811" y="392" font-family="Nunito, Arial, sans-serif" font-size="44" font-weight="900" fill="#1d4ed8" text-anchor="middle">+10</text>
</svg>
