<svg xmlns="http://www.w3.org/2000/svg" viewBox="0 0 960 540">
  <defs>
    <linearGradient id="bg" x1="0" y1="0" x2="1" y2="1">
      <stop offset="0%" stop-color="#123820" />
      <stop offset="52%" stop-color="#1b5532" />
      <stop offset="100%" stop-color="#6d4b1f" />
    </linearGradient>
    <linearGradient id="board" x1="0" y1="0" x2="1" y2="1">
      <stop offset="0%" stop-color="#c8944c" />
      <stop offset="100%" stop-color="#8b5d2b" />
    </linearGradient>
    <linearGradient id="path" x1="0" y1="0" x2="1" y2="1">
      <stop offset="0%" stop-color="#f5e5b6" />
      <stop offset="100%" stop-color="#e0c885" />
    </linearGradient>
    <linearGradient id="hud" x1="0" y1="0" x2="0" y2="1">
      <stop offset="0%" stop-color="#0f172a" />
      <stop offset="100%" stop-color="#1e293b" />
    </linearGradient>
  </defs>

  <rect width="960" height="540" rx="34" fill="url(#bg)" />
  <circle cx="118" cy="88" r="84" fill="#22c55e" fill-opacity="0.18" />
  <circle cx="842" cy="458" r="102" fill="#f59e0b" fill-opacity="0.16" />
  <circle cx="812" cy="120" r="56" fill="#34d399" fill-opacity="0.13" />

  <rect x="42" y="36" width="290" height="58" rx="14" fill="#064e3b" fill-opacity="0.92" />
  <text x="187" y="73" font-family="Nunito, Arial, sans-serif" font-size="24" font-weight="900" fill="#ffffff" text-anchor="middle">
    JUMANJI BOARD QUEST
  </text>

  <rect x="352" y="36" width="184" height="58" rx="14" fill="#7c2d12" fill-opacity="0.88" />
  <text x="444" y="73" font-family="Nunito, Arial, sans-serif" font-size="22" font-weight="900" fill="#ffffff" text-anchor="middle">
    DICE + QUIZ
  </text>

  <rect x="214" y="94" width="534" height="382" rx="34" fill="url(#board)" stroke="#5f3e1f" stroke-width="4" />
  <rect x="240" y="120" width="482" height="330" rx="24" fill="#203227" stroke="#1a271f" stroke-width="3" />

  <rect x="262" y="142" width="80" height="56" rx="14" fill="url(#path)" />
  <rect x="360" y="142" width="80" height="56" rx="14" fill="url(#path)" />
  <rect x="458" y="142" width="80" height="56" rx="14" fill="url(#path)" />
  <rect x="556" y="142" width="80" height="56" rx="14" fill="url(#path)" />
  <rect x="654" y="142" width="46" height="56" rx="14" fill="url(#path)" />

  <rect x="654" y="214" width="46" height="56" rx="14" fill="url(#path)" />
  <rect x="556" y="214" width="80" height="56" rx="14" fill="url(#path)" />
  <rect x="458" y="214" width="80" height="56" rx="14" fill="url(#path)" />
  <rect x="360" y="214" width="80" height="56" rx="14" fill="url(#path)" />
  <rect x="262" y="214" width="80" height="56" rx="14" fill="url(#path)" />

  <rect x="262" y="286" width="80" height="56" rx="14" fill="url(#path)" />
  <rect x="360" y="286" width="80" height="56" rx="14" fill="url(#path)" />
  <rect x="458" y="286" width="80" height="56" rx="14" fill="url(#path)" />
  <rect x="556" y="286" width="80" height="56" rx="14" fill="url(#path)" />
  <rect x="654" y="286" width="46" height="56" rx="14" fill="url(#path)" />

  <rect x="654" y="358" width="46" height="56" rx="14" fill="url(#path)" />
  <rect x="556" y="358" width="80" height="56" rx="14" fill="url(#path)" />
  <rect x="458" y="358" width="80" height="56" rx="14" fill="url(#path)" />
  <rect x="360" y="358" width="80" height="56" rx="14" fill="url(#path)" />
  <rect x="262" y="358" width="80" height="56" rx="14" fill="url(#path)" />

  <text x="302" y="178" font-family="Nunito, Arial, sans-serif" font-size="26" font-weight="900" fill="#334155" text-anchor="middle">START</text>
  <text x="674" y="394" font-family="Nunito, Arial, sans-serif" font-size="18" font-weight="900" fill="#334155" text-anchor="middle">30</text>

  <circle cx="494" cy="314" r="18" fill="#38bdf8" stroke="#0f172a" stroke-width="3" />
  <circle cx="592" cy="242" r="18" fill="#f43f5e" stroke="#0f172a" stroke-width="3" />

  <rect x="730" y="116" width="194" height="164" rx="18" fill="url(#hud)" stroke="#38bdf8" stroke-width="2" />
  <text x="827" y="145" font-family="Nunito, Arial, sans-serif" font-size="14" font-weight="800" fill="#93c5fd" text-anchor="middle">
    SAVOL PANELI
  </text>
  <text x="827" y="182" font-family="Nunito, Arial, sans-serif" font-size="34" font-weight="900" fill="#ffffff" text-anchor="middle">
    17 + 8 = ?
  </text>
  <text x="750" y="218" font-family="Nunito, Arial, sans-serif" font-size="20" font-weight="900" fill="#34d399">A) 25</text>
  <text x="846" y="218" font-family="Nunito, Arial, sans-serif" font-size="20" font-weight="900" fill="#f97316">B) 23</text>
  <text x="750" y="248" font-family="Nunito, Arial, sans-serif" font-size="20" font-weight="900" fill="#38bdf8">C) 24</text>
  <text x="846" y="248" font-family="Nunito, Arial, sans-serif" font-size="20" font-weight="900" fill="#f472b6">D) 26</text>

  <g transform="translate(762 302)">
    <rect x="0" y="0" width="66" height="66" rx="12" fill="#ffffff" stroke="#0f172a" stroke-width="3" />
    <circle cx="18" cy="18" r="5" fill="#0f172a" />
    <circle cx="48" cy="18" r="5" fill="#0f172a" />
    <circle cx="18" cy="48" r="5" fill="#0f172a" />
    <circle cx="48" cy="48" r="5" fill="#0f172a" />
    <circle cx="33" cy="33" r="5" fill="#0f172a" />
  </g>

  <text x="492" y="466" font-family="Nunito, Arial, sans-serif" font-size="24" font-weight="900" fill="#fef3c7" text-anchor="middle">
    QUIZNI TOP, ZAR TASHLA, 30-QADAMGA BIRINCHI YET
  </text>
</svg>
