<svg xmlns="http://www.w3.org/2000/svg" viewBox="0 0 960 540">
  <defs>
    <linearGradient id="bg" x1="0" y1="0" x2="1" y2="1">
      <stop offset="0%" stop-color="#eef4ff" />
      <stop offset="56%" stop-color="#f6f8ff" />
      <stop offset="100%" stop-color="#fff2de" />
    </linearGradient>
    <linearGradient id="panel" x1="0" y1="0" x2="0" y2="1">
      <stop offset="0%" stop-color="#ffffff" />
      <stop offset="100%" stop-color="#f4f7ff" />
    </linearGradient>
    <linearGradient id="titleGrad" x1="0" y1="0" x2="1" y2="1">
      <stop offset="0%" stop-color="#7c3aed" />
      <stop offset="100%" stop-color="#db2777" />
    </linearGradient>
    <linearGradient id="wordA" x1="0" y1="0" x2="1" y2="1">
      <stop offset="0%" stop-color="#22d3ee" />
      <stop offset="100%" stop-color="#0ea5e9" />
    </linearGradient>
    <linearGradient id="wordB" x1="0" y1="0" x2="1" y2="1">
      <stop offset="0%" stop-color="#818cf8" />
      <stop offset="100%" stop-color="#6366f1" />
    </linearGradient>
    <linearGradient id="wordC" x1="0" y1="0" x2="1" y2="1">
      <stop offset="0%" stop-color="#34d399" />
      <stop offset="100%" stop-color="#10b981" />
    </linearGradient>
    <linearGradient id="wordD" x1="0" y1="0" x2="1" y2="1">
      <stop offset="0%" stop-color="#f472b6" />
      <stop offset="100%" stop-color="#ec4899" />
    </linearGradient>
  </defs>

  <rect width="960" height="540" rx="34" fill="url(#bg)" />
  <circle cx="124" cy="88" r="78" fill="#818cf8" fill-opacity="0.18" />
  <circle cx="842" cy="456" r="98" fill="#f59e0b" fill-opacity="0.16" />

  <rect x="44" y="38" width="250" height="58" rx="14" fill="url(#titleGrad)" />
  <text x="169" y="74" font-family="Nunito, Arial, sans-serif" font-size="24" font-weight="900" fill="#ffffff" text-anchor="middle">
    JUMLA USTASI
  </text>

  <rect x="320" y="38" width="158" height="58" rx="14" fill="#1d4ed8" fill-opacity="0.9" />
  <text x="399" y="74" font-family="Nunito, Arial, sans-serif" font-size="22" font-weight="900" fill="#ffffff" text-anchor="middle">
    SO'Z DUEL
  </text>

  <rect x="502" y="38" width="210" height="58" rx="14" fill="#0f766e" fill-opacity="0.9" />
  <text x="607" y="74" font-family="Nunito, Arial, sans-serif" font-size="22" font-weight="900" fill="#ffffff" text-anchor="middle">
    TOP VA TUZ
  </text>

  <rect x="82" y="118" width="796" height="356" rx="30" fill="url(#panel)" stroke="#c7d2fe" stroke-width="3" />

  <rect x="110" y="148" width="500" height="144" rx="22" fill="#0f172a" />
  <text x="132" y="181" font-family="Nunito, Arial, sans-serif" font-size="17" font-weight="800" fill="#93c5fd">
    ARALASH HARFLAR
  </text>
  <text x="360" y="242" font-family="Nunito, Arial, sans-serif" font-size="76" font-weight="900" fill="#ffffff" text-anchor="middle">
    M L A U J
  </text>
  <text x="360" y="275" font-family="Nunito, Arial, sans-serif" font-size="18" font-weight="800" fill="#bfdbfe" text-anchor="middle">
    TO'G'RI SO'ZNI TOPING
  </text>

  <rect x="110" y="306" width="500" height="140" rx="22" fill="#f8fafc" stroke="#cbd5e1" stroke-dasharray="10 10" />
  <text x="132" y="338" font-family="Nunito, Arial, sans-serif" font-size="17" font-weight="800" fill="#64748b">
    TO'G'RI JAVOB
  </text>
  <text x="360" y="397" font-family="Nunito, Arial, sans-serif" font-size="64" font-weight="900" fill="#111827" text-anchor="middle">
    JUMLA
  </text>

  <rect x="634" y="148" width="216" height="66" rx="16" fill="url(#wordA)" />
  <rect x="634" y="224" width="216" height="66" rx="16" fill="url(#wordB)" />
  <rect x="634" y="300" width="216" height="66" rx="16" fill="url(#wordC)" />
  <rect x="634" y="376" width="216" height="66" rx="16" fill="url(#wordD)" />

  <text x="656" y="190" font-family="Nunito, Arial, sans-serif" font-size="30" font-weight="900" fill="#ffffff">A) JUMLA</text>
  <text x="656" y="266" font-family="Nunito, Arial, sans-serif" font-size="30" font-weight="900" fill="#ffffff">B) JALUM</text>
  <text x="656" y="342" font-family="Nunito, Arial, sans-serif" font-size="30" font-weight="900" fill="#ffffff">C) MUJAL</text>
  <text x="656" y="418" font-family="Nunito, Arial, sans-serif" font-size="30" font-weight="900" fill="#ffffff">D) ALUMJ</text>
</svg>
