<svg width="1200" height="800" viewBox="0 0 1200 800" fill="none" xmlns="http://www.w3.org/2000/svg">
  <rect width="1200" height="800" rx="56" fill="url(#bg)"/>
  <g opacity="0.55">
    <circle cx="182" cy="168" r="152" fill="url(#orbA)"/>
    <circle cx="998" cy="154" r="178" fill="url(#orbB)"/>
    <circle cx="968" cy="658" r="214" fill="url(#orbC)"/>
  </g>
  <rect x="116" y="108" width="968" height="584" rx="44" fill="url(#panel)" stroke="rgba(255,255,255,0.22)"/>
  <rect x="158" y="152" width="884" height="118" rx="30" fill="rgba(255,255,255,0.12)"/>
  <rect x="158" y="306" width="420" height="280" rx="34" fill="rgba(8,20,58,0.78)" stroke="rgba(255,255,255,0.14)"/>
  <rect x="622" y="306" width="420" height="280" rx="34" fill="rgba(7,30,53,0.68)" stroke="rgba(255,255,255,0.14)"/>
  <path d="M187 430C256 353 340 318 428 326C522 334 561 392 570 454" stroke="url(#lineA)" stroke-width="10" stroke-linecap="round"/>
  <path d="M658 472C734 380 810 338 925 342C973 343 1001 352 1022 366" stroke="url(#lineB)" stroke-width="10" stroke-linecap="round"/>
  <circle cx="260" cy="430" r="18" fill="#67E8F9"/>
  <circle cx="360" cy="372" r="18" fill="#67E8F9"/>
  <circle cx="448" cy="402" r="18" fill="#22D3EE"/>
  <circle cx="750" cy="472" r="18" fill="#FDBA74"/>
  <circle cx="856" cy="396" r="18" fill="#FCD34D"/>
  <circle cx="950" cy="434" r="18" fill="#FB7185"/>
  <rect x="188" y="176" width="156" height="40" rx="20" fill="rgba(111,234,255,0.16)"/>
  <rect x="362" y="176" width="526" height="40" rx="20" fill="rgba(255,255,255,0.12)"/>
  <rect x="902" y="176" width="110" height="40" rx="20" fill="rgba(251,191,36,0.18)"/>
  <text x="194" y="204" fill="#8BE9FF" font-family="Verdana, sans-serif" font-size="21" font-weight="700" letter-spacing="2">BATTLE ROOM</text>
  <text x="178" y="255" fill="white" font-family="Verdana, sans-serif" font-size="58" font-weight="700">1 Question</text>
  <text x="534" y="255" fill="#8BE9FF" font-family="Verdana, sans-serif" font-size="58" font-weight="700">100 Answers</text>
  <text x="806" y="255" fill="#FCD34D" font-family="Verdana, sans-serif" font-size="58" font-weight="700">Teams</text>
  <text x="194" y="352" fill="#D7F7FF" font-family="Verdana, sans-serif" font-size="26" font-weight="700">Unique Battle Score</text>
  <text x="194" y="394" fill="rgba(255,255,255,0.76)" font-family="Verdana, sans-serif" font-size="22">Fast unique answers</text>
  <text x="194" y="426" fill="rgba(255,255,255,0.76)" font-family="Verdana, sans-serif" font-size="22">Team survival meter</text>
  <text x="194" y="458" fill="rgba(255,255,255,0.76)" font-family="Verdana, sans-serif" font-size="22">50+ players per room</text>
  <text x="658" y="352" fill="#FFF2D6" font-family="Verdana, sans-serif" font-size="26" font-weight="700">Royal Leaderboard</text>
  <text x="658" y="394" fill="rgba(255,255,255,0.76)" font-family="Verdana, sans-serif" font-size="22">Live eliminations</text>
  <text x="658" y="426" fill="rgba(255,255,255,0.76)" font-family="Verdana, sans-serif" font-size="22">Chat and reaction waves</text>
  <text x="658" y="458" fill="rgba(255,255,255,0.76)" font-family="Verdana, sans-serif" font-size="22">XP and global rank</text>
  <rect x="190" y="518" width="186" height="42" rx="21" fill="rgba(103,232,249,0.16)"/>
  <rect x="658" y="518" width="194" height="42" rx="21" fill="rgba(253,186,116,0.16)"/>
  <text x="212" y="546" fill="#A5F3FC" font-family="Verdana, sans-serif" font-size="20" font-weight="700">Unique +10</text>
  <text x="685" y="546" fill="#FED7AA" font-family="Verdana, sans-serif" font-size="20" font-weight="700">Fastest Bonus</text>
  <defs>
    <linearGradient id="bg" x1="56" y1="48" x2="1112" y2="736" gradientUnits="userSpaceOnUse">
      <stop stop-color="#061126"/>
      <stop offset="0.46" stop-color="#101C42"/>
      <stop offset="1" stop-color="#35155D"/>
    </linearGradient>
    <radialGradient id="orbA" cx="0" cy="0" r="1" gradientUnits="userSpaceOnUse" gradientTransform="translate(182 168) rotate(90) scale(152)">
      <stop stop-color="#22D3EE"/>
      <stop offset="1" stop-color="#22D3EE" stop-opacity="0"/>
    </radialGradient>
    <radialGradient id="orbB" cx="0" cy="0" r="1" gradientUnits="userSpaceOnUse" gradientTransform="translate(998 154) rotate(90) scale(178)">
      <stop stop-color="#7C3AED"/>
      <stop offset="1" stop-color="#7C3AED" stop-opacity="0"/>
    </radialGradient>
    <radialGradient id="orbC" cx="0" cy="0" r="1" gradientUnits="userSpaceOnUse" gradientTransform="translate(968 658) rotate(90) scale(214)">
      <stop stop-color="#F59E0B"/>
      <stop offset="1" stop-color="#F59E0B" stop-opacity="0"/>
    </radialGradient>
    <linearGradient id="panel" x1="148" y1="132" x2="1010" y2="668" gradientUnits="userSpaceOnUse">
      <stop stop-color="rgba(19,39,82,0.9)"/>
      <stop offset="1" stop-color="rgba(26,19,54,0.92)"/>
    </linearGradient>
    <linearGradient id="lineA" x1="187" y1="330" x2="570" y2="458" gradientUnits="userSpaceOnUse">
      <stop stop-color="#67E8F9"/>
      <stop offset="1" stop-color="#C084FC"/>
    </linearGradient>
    <linearGradient id="lineB" x1="658" y1="366" x2="1022" y2="458" gradientUnits="userSpaceOnUse">
      <stop stop-color="#FCD34D"/>
      <stop offset="1" stop-color="#FB7185"/>
    </linearGradient>
  </defs>
</svg>
