<svg xmlns="http://www.w3.org/2000/svg" viewBox="0 0 960 540">
  <defs>
    <linearGradient id="bg" x1="0" y1="0" x2="1" y2="1">
      <stop offset="0%" stop-color="#e7f6ff" />
      <stop offset="54%" stop-color="#f2fbff" />
      <stop offset="100%" stop-color="#fff2da" />
    </linearGradient>
    <linearGradient id="boardGrad" x1="0" y1="0" x2="1" y2="1">
      <stop offset="0%" stop-color="#0f3d4d" />
      <stop offset="100%" stop-color="#0a2d39" />
    </linearGradient>
    <linearGradient id="scoreGrad" x1="0" y1="0" x2="0" y2="1">
      <stop offset="0%" stop-color="#2563eb" />
      <stop offset="100%" stop-color="#1d4ed8" />
    </linearGradient>
    <linearGradient id="answerA" x1="0" y1="0" x2="1" y2="1">
      <stop offset="0%" stop-color="#22d3ee" />
      <stop offset="100%" stop-color="#0ea5e9" />
    </linearGradient>
    <linearGradient id="answerB" x1="0" y1="0" x2="1" y2="1">
      <stop offset="0%" stop-color="#34d399" />
      <stop offset="100%" stop-color="#10b981" />
    </linearGradient>
    <linearGradient id="answerC" x1="0" y1="0" x2="1" y2="1">
      <stop offset="0%" stop-color="#fbbf24" />
      <stop offset="100%" stop-color="#f59e0b" />
    </linearGradient>
    <linearGradient id="answerD" x1="0" y1="0" x2="1" y2="1">
      <stop offset="0%" stop-color="#fb7185" />
      <stop offset="100%" stop-color="#f43f5e" />
    </linearGradient>
  </defs>

  <rect width="960" height="540" rx="34" fill="url(#bg)" />
  <circle cx="118" cy="86" r="76" fill="#38bdf8" fill-opacity="0.2" />
  <circle cx="848" cy="458" r="102" fill="#f59e0b" fill-opacity="0.16" />

  <rect x="48" y="38" width="246" height="58" rx="14" fill="#0f766e" fill-opacity="0.92" />
  <text x="171" y="74" font-family="Nunito, Arial, sans-serif" font-size="24" font-weight="900" fill="#ffffff" text-anchor="middle">
    TEZKOR HISOB
  </text>

  <rect x="320" y="38" width="178" height="58" rx="14" fill="#1d4ed8" fill-opacity="0.9" />
  <text x="409" y="74" font-family="Nunito, Arial, sans-serif" font-size="22" font-weight="900" fill="#ffffff" text-anchor="middle">
    REAL BATTLE
  </text>

  <rect x="744" y="38" width="168" height="58" rx="14" fill="#ea580c" fill-opacity="0.9" />
  <text x="828" y="74" font-family="Nunito, Arial, sans-serif" font-size="26" font-weight="900" fill="#ffffff" text-anchor="middle">
    00:28
  </text>

  <rect x="70" y="118" width="560" height="356" rx="28" fill="url(#boardGrad)" stroke="#0ea5e9" stroke-width="3" />
  <text x="102" y="154" font-family="Nunito, Arial, sans-serif" font-size="18" font-weight="800" fill="#7dd3fc">
    SAVOL 4 / 8
  </text>
  <text x="350" y="244" font-family="Nunito, Arial, sans-serif" font-size="78" font-weight="900" fill="#f0f9ff" text-anchor="middle">
    27 + 38 = ?
  </text>
  <text x="350" y="292" font-family="Nunito, Arial, sans-serif" font-size="20" font-weight="800" fill="#bae6fd" text-anchor="middle">
    KIM TEZ TOPSA O'SHA BALL OLADI
  </text>

  <rect x="102" y="320" width="248" height="60" rx="15" fill="url(#answerA)" />
  <rect x="366" y="320" width="232" height="60" rx="15" fill="url(#answerB)" />
  <rect x="102" y="394" width="248" height="60" rx="15" fill="url(#answerC)" />
  <rect x="366" y="394" width="232" height="60" rx="15" fill="url(#answerD)" />

  <text x="132" y="360" font-family="Nunito, Arial, sans-serif" font-size="30" font-weight="900" fill="#ffffff">A) 65</text>
  <text x="396" y="360" font-family="Nunito, Arial, sans-serif" font-size="30" font-weight="900" fill="#ffffff">B) 64</text>
  <text x="132" y="434" font-family="Nunito, Arial, sans-serif" font-size="30" font-weight="900" fill="#ffffff">C) 66</text>
  <text x="396" y="434" font-family="Nunito, Arial, sans-serif" font-size="30" font-weight="900" fill="#ffffff">D) 63</text>

  <rect x="652" y="118" width="238" height="356" rx="28" fill="#ffffff" stroke="#bfdbfe" stroke-width="3" />
  <rect x="670" y="142" width="202" height="74" rx="16" fill="url(#scoreGrad)" />
  <text x="771" y="171" font-family="Nunito, Arial, sans-serif" font-size="16" font-weight="800" fill="#dbeafe" text-anchor="middle">
    1-JAMOA
  </text>
  <text x="771" y="202" font-family="Nunito, Arial, sans-serif" font-size="36" font-weight="900" fill="#ffffff" text-anchor="middle">
    48 BALL
  </text>

  <rect x="670" y="228" width="202" height="74" rx="16" fill="#0f766e" />
  <text x="771" y="257" font-family="Nunito, Arial, sans-serif" font-size="16" font-weight="800" fill="#99f6e4" text-anchor="middle">
    2-JAMOA
  </text>
  <text x="771" y="288" font-family="Nunito, Arial, sans-serif" font-size="36" font-weight="900" fill="#ffffff" text-anchor="middle">
    44 BALL
  </text>

  <rect x="670" y="316" width="202" height="142" rx="16" fill="#f8fafc" stroke="#cbd5e1" stroke-dasharray="9 9" />
  <text x="771" y="350" font-family="Nunito, Arial, sans-serif" font-size="17" font-weight="800" fill="#64748b" text-anchor="middle">
    TO'G'RI JAVOB
  </text>
  <text x="771" y="414" font-family="Nunito, Arial, sans-serif" font-size="72" font-weight="900" fill="#0f172a" text-anchor="middle">
    65
  </text>
</svg>
