<svg width="520" height="320" viewBox="0 0 520 320" fill="none" xmlns="http://www.w3.org/2000/svg">
  <defs>
    <linearGradient id="xotiraBg" x1="20" y1="20" x2="500" y2="300" gradientUnits="userSpaceOnUse">
      <stop stop-color="#D1FAE5"/>
      <stop offset="1" stop-color="#CCFBF1"/>
    </linearGradient>
    <linearGradient id="cardA" x1="140" y1="78" x2="210" y2="158" gradientUnits="userSpaceOnUse">
      <stop stop-color="#34D399"/>
      <stop offset="1" stop-color="#10B981"/>
    </linearGradient>
    <linearGradient id="cardB" x1="228" y1="78" x2="296" y2="158" gradientUnits="userSpaceOnUse">
      <stop stop-color="#38BDF8"/>
      <stop offset="1" stop-color="#0EA5E9"/>
    </linearGradient>
    <linearGradient id="cardC" x1="318" y1="78" x2="386" y2="158" gradientUnits="userSpaceOnUse">
      <stop stop-color="#F472B6"/>
      <stop offset="1" stop-color="#EC4899"/>
    </linearGradient>
  </defs>
  <rect x="12" y="12" width="496" height="296" rx="30" fill="url(#xotiraBg)"/>
  <rect x="134" y="70" width="76" height="90" rx="16" fill="url(#cardA)"/>
  <rect x="224" y="70" width="76" height="90" rx="16" fill="url(#cardB)"/>
  <rect x="314" y="70" width="76" height="90" rx="16" fill="url(#cardC)"/>
  <rect x="134" y="170" width="76" height="90" rx="16" fill="#F8FAFC" stroke="#10B981" stroke-width="6"/>
  <rect x="224" y="170" width="76" height="90" rx="16" fill="#F8FAFC" stroke="#0EA5E9" stroke-width="6"/>
  <rect x="314" y="170" width="76" height="90" rx="16" fill="#F8FAFC" stroke="#EC4899" stroke-width="6"/>
  <circle cx="172" cy="214" r="14" fill="#10B981"/>
  <circle cx="262" cy="214" r="14" fill="#0EA5E9"/>
  <circle cx="352" cy="214" r="14" fill="#EC4899"/>
  <path d="M172 108C175 112 181 112 184 108" stroke="#ECFDF5" stroke-width="4" stroke-linecap="round"/>
  <path d="M262 108C265 112 271 112 274 108" stroke="#E0F2FE" stroke-width="4" stroke-linecap="round"/>
  <path d="M352 108C355 112 361 112 364 108" stroke="#FCE7F3" stroke-width="4" stroke-linecap="round"/>
</svg>
