<svg width="1200" height="630" viewBox="0 0 1200 630" fill="none" xmlns="http://www.w3.org/2000/svg">
  <defs>
    <linearGradient id="bg" x1="84" y1="36" x2="1126" y2="596" gradientUnits="userSpaceOnUse">
      <stop stop-color="#0F172A"/>
      <stop offset="0.45" stop-color="#1D4ED8"/>
      <stop offset="1" stop-color="#0EA5E9"/>
    </linearGradient>
    <linearGradient id="panel" x1="146" y1="92" x2="992" y2="530" gradientUnits="userSpaceOnUse">
      <stop stop-color="#FFFFFF" stop-opacity="0.24"/>
      <stop offset="1" stop-color="#FFFFFF" stop-opacity="0.08"/>
    </linearGradient>
    <linearGradient id="accent" x1="766" y1="113" x2="1068" y2="470" gradientUnits="userSpaceOnUse">
      <stop stop-color="#FDE68A"/>
      <stop offset="1" stop-color="#FB7185"/>
    </linearGradient>
    <filter id="blur" x="-40" y="-40" width="1280" height="710" filterUnits="userSpaceOnUse">
      <feGaussianBlur stdDeviation="30"/>
    </filter>
  </defs>

  <rect width="1200" height="630" rx="32" fill="url(#bg)"/>
  <g filter="url(#blur)" opacity="0.8">
    <circle cx="182" cy="92" r="96" fill="#38BDF8"/>
    <circle cx="1024" cy="132" r="118" fill="#F97316"/>
    <circle cx="924" cy="524" r="132" fill="#A855F7"/>
  </g>

  <rect x="74" y="58" width="1052" height="514" rx="34" fill="url(#panel)" stroke="rgba(255,255,255,0.22)"/>

  <g opacity="0.92">
    <rect x="120" y="110" width="194" height="116" rx="24" fill="#0F172A" fill-opacity="0.48" stroke="#7DD3FC" stroke-opacity="0.38"/>
    <text x="150" y="154" fill="#BAE6FD" font-family="Verdana, Geneva, sans-serif" font-size="22" font-weight="700">QUIZ BATTLE</text>
    <text x="150" y="192" fill="#E2E8F0" font-family="Verdana, Geneva, sans-serif" font-size="18">Interaktiv sinf dueli</text>

    <rect x="120" y="248" width="194" height="116" rx="24" fill="#0F172A" fill-opacity="0.48" stroke="#FDE68A" stroke-opacity="0.44"/>
    <text x="150" y="292" fill="#FEF3C7" font-family="Verdana, Geneva, sans-serif" font-size="22" font-weight="700">TEZKOR HISOB</text>
    <text x="150" y="330" fill="#E2E8F0" font-family="Verdana, Geneva, sans-serif" font-size="18">Matematika bellashuvi</text>

    <rect x="120" y="386" width="194" height="116" rx="24" fill="#0F172A" fill-opacity="0.48" stroke="#F9A8D4" stroke-opacity="0.44"/>
    <text x="150" y="430" fill="#FCE7F3" font-family="Verdana, Geneva, sans-serif" font-size="22" font-weight="700">VISUAL IQ</text>
    <text x="150" y="468" fill="#E2E8F0" font-family="Verdana, Geneva, sans-serif" font-size="18">Rasmli mantiq oyinlari</text>
  </g>

  <g>
    <text x="372" y="206" fill="white" font-family="Verdana, Geneva, sans-serif" font-size="64" font-weight="800">QiziqO'yin</text>
    <text x="372" y="266" fill="#DBEAFE" font-family="Verdana, Geneva, sans-serif" font-size="30" font-weight="600">
      Classroom quizlar, jamoaviy oyinlar va teacher paneli
    </text>
    <text x="372" y="318" fill="#E2E8F0" font-family="Verdana, Geneva, sans-serif" font-size="26">
      Bitta platformada battle, visual IQ, matematika va custom savollar.
    </text>
    <text x="372" y="370" fill="#E2E8F0" font-family="Verdana, Geneva, sans-serif" font-size="26">
      Oquvchilar uchun qiziqarli tajriba, ustozlar uchun qulay boshqaruv.
    </text>

    <rect x="372" y="424" width="280" height="62" rx="31" fill="#F8FAFC"/>
    <text x="412" y="464" fill="#0F172A" font-family="Verdana, Geneva, sans-serif" font-size="28" font-weight="800">
      web-game-jade-three
    </text>
  </g>

  <g>
    <rect x="784" y="114" width="280" height="326" rx="34" fill="#FFFFFF" fill-opacity="0.14"/>
    <rect x="812" y="144" width="224" height="116" rx="26" fill="url(#accent)"/>
    <circle cx="866" cy="204" r="34" fill="white" fill-opacity="0.88"/>
    <path d="M865 186L875 204L865 222L855 204L865 186Z" fill="#0F172A"/>
    <rect x="812" y="286" width="168" height="22" rx="11" fill="#DBEAFE"/>
    <rect x="812" y="324" width="224" height="16" rx="8" fill="#DBEAFE" fill-opacity="0.86"/>
    <rect x="812" y="352" width="204" height="16" rx="8" fill="#DBEAFE" fill-opacity="0.56"/>
    <rect x="812" y="392" width="142" height="22" rx="11" fill="#FDE68A"/>
    <rect x="970" y="392" width="66" height="22" rx="11" fill="#38BDF8"/>

    <rect x="736" y="470" width="350" height="74" rx="26" fill="#0F172A" fill-opacity="0.52" stroke="#93C5FD" stroke-opacity="0.36"/>
    <text x="770" y="516" fill="#F8FAFC" font-family="Verdana, Geneva, sans-serif" font-size="28" font-weight="700">
      Teacher + Student ready
    </text>
  </g>
</svg>
