<svg width="900" height="980" viewBox="0 0 900 980" fill="none" xmlns="http://www.w3.org/2000/svg">
  <defs>
    <linearGradient id="premiumBg" x1="0" y1="0" x2="900" y2="980" gradientUnits="userSpaceOnUse">
      <stop stop-color="#0EA5E9"/>
      <stop offset="0.45" stop-color="#2563EB"/>
      <stop offset="1" stop-color="#1E40AF"/>
    </linearGradient>
    <linearGradient id="glassPanel" x1="110" y1="124" x2="790" y2="420" gradientUnits="userSpaceOnUse">
      <stop stop-color="white" stop-opacity="0.86"/>
      <stop offset="1" stop-color="white" stop-opacity="0.68"/>
    </linearGradient>
    <linearGradient id="chipA" x1="120" y1="580" x2="330" y2="790" gradientUnits="userSpaceOnUse">
      <stop stop-color="#FDE68A"/>
      <stop offset="1" stop-color="#F59E0B"/>
    </linearGradient>
    <linearGradient id="chipB" x1="350" y1="600" x2="560" y2="810" gradientUnits="userSpaceOnUse">
      <stop stop-color="#FBCFE8"/>
      <stop offset="1" stop-color="#EC4899"/>
    </linearGradient>
    <linearGradient id="chipC" x1="580" y1="580" x2="790" y2="790" gradientUnits="userSpaceOnUse">
      <stop stop-color="#A7F3D0"/>
      <stop offset="1" stop-color="#10B981"/>
    </linearGradient>
    <filter id="shadow" x="55" y="76" width="790" height="870" filterUnits="userSpaceOnUse" color-interpolation-filters="sRGB">
      <feDropShadow dx="0" dy="22" stdDeviation="22" flood-color="#0f172a" flood-opacity="0.28"/>
    </filter>
  </defs>

  <rect width="900" height="980" fill="url(#premiumBg)"/>
  <circle cx="120" cy="130" r="88" fill="white" fill-opacity="0.18"/>
  <circle cx="782" cy="148" r="102" fill="white" fill-opacity="0.16"/>
  <circle cx="138" cy="866" r="96" fill="#FDE68A" fill-opacity="0.24"/>
  <circle cx="778" cy="842" r="110" fill="#FBCFE8" fill-opacity="0.24"/>

  <g filter="url(#shadow)">
    <rect x="86" y="106" width="728" height="812" rx="44" fill="white" fill-opacity="0.1"/>
  </g>

  <rect x="110" y="124" width="680" height="292" rx="40" fill="url(#glassPanel)"/>
  <rect x="146" y="164" width="314" height="64" rx="22" fill="#E0F2FE"/>
  <rect x="146" y="250" width="446" height="40" rx="16" fill="#BFDBFE"/>
  <rect x="146" y="304" width="362" height="40" rx="16" fill="#C7D2FE"/>
  <circle cx="722" cy="192" r="46" fill="#22D3EE"/>
  <text x="722" y="207" text-anchor="middle" fill="#E0F2FE" font-family="Arial, sans-serif" font-size="30" font-weight="800">GO</text>

  <circle cx="298" cy="512" r="120" fill="#F8FAFC"/>
  <circle cx="298" cy="488" r="88" fill="#FDBA74"/>
  <circle cx="270" cy="490" r="9" fill="#0F172A"/>
  <circle cx="326" cy="490" r="9" fill="#0F172A"/>
  <path d="M270 530C280 544 316 544 326 530" stroke="#0F172A" stroke-width="6" stroke-linecap="round"/>
  <rect x="220" y="612" width="156" height="122" rx="44" fill="#FB923C"/>
  <rect x="193" y="654" width="54" height="26" rx="13" fill="#FED7AA"/>
  <rect x="349" y="654" width="54" height="26" rx="13" fill="#FED7AA"/>

  <circle cx="602" cy="518" r="120" fill="#F8FAFC"/>
  <circle cx="602" cy="494" r="88" fill="#93C5FD"/>
  <circle cx="574" cy="496" r="9" fill="#0F172A"/>
  <circle cx="630" cy="496" r="9" fill="#0F172A"/>
  <path d="M574 536C584 550 620 550 630 536" stroke="#0F172A" stroke-width="6" stroke-linecap="round"/>
  <rect x="522" y="618" width="160" height="126" rx="44" fill="#2563EB"/>
  <rect x="494" y="660" width="54" height="26" rx="13" fill="#BFDBFE"/>
  <rect x="656" y="660" width="54" height="26" rx="13" fill="#BFDBFE"/>

  <rect x="120" y="580" width="210" height="210" rx="30" fill="url(#chipA)"/>
  <rect x="350" y="600" width="210" height="210" rx="30" fill="url(#chipB)"/>
  <rect x="580" y="580" width="210" height="210" rx="30" fill="url(#chipC)"/>
  <text x="225" y="700" text-anchor="middle" fill="#7C2D12" font-family="Arial, sans-serif" font-size="72" font-weight="800">A</text>
  <text x="455" y="718" text-anchor="middle" fill="#831843" font-family="Arial, sans-serif" font-size="72" font-weight="800">B</text>
  <text x="685" y="700" text-anchor="middle" fill="#14532D" font-family="Arial, sans-serif" font-size="72" font-weight="800">C</text>

  <circle cx="450" cy="848" r="72" fill="white"/>
  <path d="M450 798L466 829L500 834L475 858L481 893L450 876L419 893L425 858L400 834L434 829L450 798Z" fill="#F59E0B"/>

  <circle cx="170" cy="470" r="24" fill="#FDE68A" fill-opacity="0.95"/>
  <circle cx="730" cy="454" r="22" fill="#FBCFE8" fill-opacity="0.95"/>
  <circle cx="450" cy="430" r="20" fill="#A7F3D0" fill-opacity="0.95"/>
</svg>
