<svg xmlns="http://www.w3.org/2000/svg" viewBox="0 0 640 220">
  <rect width="640" height="220" rx="26" fill="#eff6ff"/>
  <g transform="translate(70 55)">
    <ellipse cx="70" cy="76" rx="42" ry="28" fill="#60a5fa"/>
    <circle cx="102" cy="55" r="18" fill="#93c5fd"/>
    <polygon points="118,55 142,64 118,73" fill="#f59e0b"/>
    <path d="M35 74 C8 55, 14 28, 48 37 C62 42, 62 58, 35 74Z" fill="#1d4ed8"/>
  </g>
  <g transform="translate(240 68)">
    <path d="M10 58 L112 42 C127 39 146 44 160 54 C146 64 127 69 112 66 L10 50 Z" fill="#60a5fa"/>
    <path d="M76 44 L100 12 L113 16 L100 48 Z" fill="#2563eb"/>
    <path d="M68 59 L90 96 L104 90 L86 56 Z" fill="#1d4ed8"/>
    <rect x="24" y="46" width="42" height="12" rx="5" fill="#bfdbfe"/>
  </g>
  <g transform="translate(450 52)">
    <ellipse cx="45" cy="46" rx="30" ry="22" fill="#fb923c" stroke="#111827" stroke-width="4"/>
    <ellipse cx="45" cy="84" rx="26" ry="18" fill="#fdba74" stroke="#111827" stroke-width="4"/>
    <ellipse cx="95" cy="46" rx="30" ry="22" fill="#fb923c" stroke="#111827" stroke-width="4"/>
    <ellipse cx="95" cy="84" rx="26" ry="18" fill="#fdba74" stroke="#111827" stroke-width="4"/>
    <rect x="66" y="24" width="8" height="78" rx="4" fill="#1f2937"/>
  </g>
</svg>
