<svg xmlns="http://www.w3.org/2000/svg" viewBox="0 0 640 220">
  <rect width="640" height="220" rx="26" fill="#ecfeff"/>
  <g transform="translate(90 50)">
    <ellipse cx="65" cy="90" rx="55" ry="34" fill="#9ca3af"/>
    <circle cx="35" cy="70" r="24" fill="#9ca3af"/>
    <polygon points="18,58 28,36 38,58" fill="#9ca3af"/>
    <polygon points="35,58 45,36 55,58" fill="#9ca3af"/>
    <path d="M110 95 C135 105 140 125 128 146" fill="none" stroke="#6b7280" stroke-width="8" stroke-linecap="round"/>
  </g>
  <g transform="translate(255 42)">
    <rect x="55" y="86" width="16" height="62" rx="6" fill="#92400e"/>
    <circle cx="63" cy="66" r="44" fill="#4ade80"/>
    <circle cx="34" cy="76" r="26" fill="#22c55e"/>
    <circle cx="94" cy="78" r="28" fill="#16a34a"/>
  </g>
  <g transform="translate(430 58)">
    <ellipse cx="56" cy="76" rx="44" ry="26" fill="#38bdf8"/>
    <polygon points="88,76 118,56 118,96" fill="#0ea5e9"/>
    <circle cx="44" cy="70" r="4" fill="#111827"/>
    <path d="M45 87 C58 95, 72 92, 82 84" fill="none" stroke="#0369a1" stroke-width="5" stroke-linecap="round"/>
  </g>
</svg>
